<svg xmlns="http://www.w3.org/2000/svg" viewBox="0 0 303.97 304.04"><defs><style>.cls-1{fill:#404040;}</style></defs><title>exit-icon</title><g id="Layer_2" data-name="Layer 2"><g id="Layer_1-2" data-name="Layer 1"><g id="Layer_2-2" data-name="Layer 2"><g id="Layer_1-2-2" data-name="Layer 1-2"><path class="cls-1" d="M0,273.59v-7.13a11.85,11.85,0,0,0,.28-1.19c.7-5.16,2.27-10,5.84-13.91,4.62-5.08,9.18-10.23,14-15.09q41.23-41.49,82.59-82.86c.42-.42.82-.86,1.39-1.47-.62-.51-1.13-.88-1.56-1.31Q68,116.1,33.54,81.54c-8.73-8.83-17.29-17.86-25.9-26.86A24.35,24.35,0,0,1,1.06,43C.66,41.09.35,39.22,0,37.36v-6.2c.26-1.58.46-3.13.79-4.73C3.47,13.45,15.61,2.11,28.84.49c10-1.23,19.2.83,26.71,8.14,2.18,2.13,4.49,4.13,6.65,6.28q44.17,43.94,88.3,87.92a10.17,10.17,0,0,1,1.06,1.52l.73.05a8.94,8.94,0,0,1,1-1.55q34.53-34.51,69.11-69,13.36-13.27,27.1-26.14c8.91-8.34,19.63-9.18,30.71-6A33.57,33.57,0,0,1,303.76,36.4c-.44,6.46-2.26,12.37-6.74,17.24-3.22,3.5-6.33,7.1-9.68,10.47q-43,43.31-86.18,86.54a10.16,10.16,0,0,1-1.53,1.06v.67a10.47,10.47,0,0,1,1.51,1.06q34.25,34.25,68.45,68.54c9.1,9.16,18.09,18.44,26.87,27.91,8.16,8.79,8.94,19.41,5.8,30.32a33.52,33.52,0,0,1-35.81,23.62c-5.89-.54-11.36-2.25-15.78-6.37-6.43-6-12.92-11.9-19.15-18.09q-39.25-39-78.35-78.15c-.42-.42-.86-.82-1.43-1.37-.52.61-.9,1.11-1.34,1.54q-30.32,30.44-60.7,60.78-16.27,16.17-32.8,32.07c-4,3.85-8.19,7.58-13.89,8.59a57,57,0,0,1-10.73,1.08C17.59,303.69,3.84,292.2.76,277.83.46,276.43.25,275,0,273.59Z"/></g></g></g></g></svg>