<?xml version="1.0" encoding="utf-8"?>
<!-- Generator: Adobe Illustrator 24.1.2, SVG Export Plug-In . SVG Version: 6.00 Build 0)  -->
<svg version="1.1" id="Layer_1" xmlns="http://www.w3.org/2000/svg" xmlns:xlink="http://www.w3.org/1999/xlink" x="0px" y="0px"
	 viewBox="0 0 304 304" style="enable-background:new 0 0 304 304;" xml:space="preserve">
<style type="text/css">
	.st0{fill:#36486C;}
</style>
<g id="Layer_2_1_">
	<g id="Layer_1-2">
		<g id="Layer_2-2">
			<g id="Layer_1-2-2">
				<path class="st0" d="M0,273.6v-7.1c0.1-0.4,0.2-0.8,0.3-1.2c0.7-5.2,2.3-10,5.8-13.9c4.6-5.1,9.2-10.2,14-15.1
					c27.5-27.7,55-55.3,82.6-82.9c0.4-0.4,0.8-0.9,1.4-1.5c-0.6-0.5-1.1-0.9-1.6-1.3c-23-23-46-46.1-69-69.1
					c-8.7-8.8-17.3-17.9-25.9-26.9C4.4,51.5,2.1,47.4,1.1,43c-0.4-1.9-0.7-3.8-1.1-5.6v-6.2c0.3-1.6,0.5-3.1,0.8-4.7
					c2.7-13,14.8-24.3,28-25.9c10-1.2,19.2,0.8,26.7,8.1c2.2,2.1,4.5,4.1,6.7,6.3c29.4,29.3,58.9,58.6,88.3,87.9
					c0.4,0.5,0.8,1,1.1,1.5l0.7,0.1c0.3-0.5,0.6-1.1,1-1.6c23-23,46.1-46,69.1-69c8.9-8.8,17.9-17.6,27.1-26.1
					c8.9-8.3,19.6-9.2,30.7-6c15,4.6,24.8,19,23.6,34.7c-0.4,6.5-2.3,12.4-6.7,17.2c-3.2,3.5-6.3,7.1-9.7,10.5
					c-28.7,28.9-57.4,57.7-86.2,86.5c-0.5,0.4-1,0.8-1.5,1.1v0.7c0.5,0.3,1,0.7,1.5,1.1c22.8,22.8,45.7,45.7,68.4,68.5
					c9.1,9.2,18.1,18.4,26.9,27.9c8.2,8.8,8.9,19.4,5.8,30.3c-4.7,15.5-19.7,25.4-35.8,23.6c-5.9-0.5-11.4-2.2-15.8-6.4
					c-6.4-6-12.9-11.9-19.1-18.1c-26.2-26-52.3-52.1-78.4-78.1c-0.4-0.4-0.9-0.8-1.4-1.4c-0.5,0.6-0.9,1.1-1.3,1.5
					c-20.2,20.3-40.4,40.6-60.7,60.8c-10.8,10.8-21.8,21.5-32.8,32.1c-4,3.9-8.2,7.6-13.9,8.6c-3.5,0.7-7.1,1.1-10.7,1.1
					c-14.7-0.2-28.4-11.7-31.5-26.1C0.5,276.4,0.2,275,0,273.6z"/>
			</g>
		</g>
	</g>
</g>
</svg>
