<svg xmlns="http://www.w3.org/2000/svg" viewBox="0 0 323.82 231.25"><defs><style>.cls-1{fill:#fff;}</style></defs><title>hamburger-menu-icon</title><g id="Layer_2" data-name="Layer 2"><g id="Layer_1-2" data-name="Layer 1"><path class="cls-1" d="M161.92,46.25H23.65A23.13,23.13,0,0,1,22.4,0H300c10.89,0,19.92,6.57,22.83,16.58a23.11,23.11,0,0,1-22.35,29.66q-54.26.05-108.52,0Z"/><path class="cls-1" d="M161.74,138.75H23.62a23.13,23.13,0,0,1-1.19-46.23H300c10.54,0,19.31,6.14,22.52,15.73a23.11,23.11,0,0,1-22.26,30.51Q231,138.78,161.74,138.75Z"/><path class="cls-1" d="M162.08,185q69.13,0,138.27,0a23.12,23.12,0,0,1,1,46.23H23.94c-10.6,0-19.35-6-22.64-15.58A23.11,23.11,0,0,1,23.35,185q65.59,0,131.17,0Z"/></g></g></svg>